<svg xmlns="http://www.w3.org/2000/svg" width="40" height="40" viewBox="0 0 24 24">
  <path d="M0 0h24v24H0z" fill="none"/>
  <path d="M19.12 5.88c.7.7.7 1.8 0 2.5l-2.12 2.12-3.75-3.75 2.12-2.12c.7-.7 1.8-.7 2.5 0zm-8.32 8.32l3.75 3.75-7.1 1.49 1.49-7.1zm6.6-6.6l-2.12 2.12-3.75-3.75 2.12-2.12c.7-.7 1.8-.7 2.5 0l1.25 1.25c.69.69.69 1.79 0 2.48zm-6.05 9.49l-7.1 1.49 1.49-7.1 5.61 5.61c.7.7 1.8.7 2.5 0l1.25-1.25c.69-.69.69-1.79 0-2.48l-5.61-5.61 7.1-1.49-1.49 7.1c-.36 1.82-2.1 3.56-3.92 3.92z" fill="#FFDB6E"/>
</svg>
