<svg xmlns="http://www.w3.org/2000/svg" width="40" height="40" viewBox="0 0 24 24" fill="#FFDB6E">
  <path d="M0 0h24v24H0z" fill="none"/>
  <path d="M13 5v14h4V5h-4zm-4 14V5H5v14h4zm9.5-8.5c.41 0 .75.34.75.75s-.34.75-.75.75H17v3.25c0 .69-.56 1.25-1.25 1.25H8.75c-.69 0-1.25-.56-1.25-1.25V12H5.75c-.41 0-.75-.34-.75-.75s.34-.75.75-.75H7V7.75C7 7.06 7.56 6.5 8.25 6.5H15v-3.25c0-.41.34-.75.75-.75s.75.34.75.75V6h1.25c.69 0 1.25.56 1.25 1.25V10h1.25zM18 10h-1.5V7.75c0-.41-.34-.75-.75-.75s-.75.34-.75.75V10h-3.25c-.41 0-.75.34-.75.75s.34.75.75.75H15v3.25c0 .69.56 1.25 1.25 1.25H18V14h1.5c.41 0 .75-.34.75-.75s-.34-.75-.75-.75H18v-3.25c0-.69-.56-1.25-1.25-1.25z"/>
</svg>
